<svg width="200" height="165" viewBox="0 0 200 165" fill="none" xmlns="http://www.w3.org/2000/svg">
<path d="M156.787 146L151.67 107.392C155.081 105.36 160.88 106.503 164.973 98.375C169.066 90.2467 165.997 83.008 164.973 79.9601C168.384 76.5734 173.978 67.1584 169.066 56.5922C164.155 46.026 152.694 46.7708 147.577 48.4639C148.941 44.0614 149.419 34.2402 140.414 30.176C131.409 26.1118 120.971 29.8372 116.878 32.208C111.761 19 104.598 19 91.2953 19C77.9924 19 77.9923 41.3522 75.9457 38.3042C73.8991 35.2562 64.6893 30.1762 54.4563 35.2562C46.2699 39.3202 45.5877 51.1735 46.2699 56.5922C28.8737 57.6082 26.2419 69.2708 28.8737 79.9601C31.7875 91.795 47.2931 91.8134 56.5028 90.1201C55.4795 93.8454 56.2982 102.515 67.7592 107.392C79.2202 112.269 89.5897 105.36 93.3418 101.296C93.3418 104.344 95.5931 111.862 104.598 117.552C113.603 123.242 121.994 119.923 125.064 117.552L156.787 146Z" fill="#636C53"/>
<path d="M72 83L82.56 68L95.76 83L106.32 68L116.88 83L127.44 68L138 83" stroke="#D9D9D9" stroke-width="4"/>
</svg>
