<svg width="200" height="165" viewBox="0 0 200 165" fill="none" xmlns="http://www.w3.org/2000/svg">
<rect x="53" y="118.485" width="12" height="26" rx="5" fill="#636C53"/>
<rect x="129" y="118.485" width="14" height="26" rx="5" fill="#636C53"/>
<rect width="12.7157" height="25.4314" rx="5" transform="matrix(-0.859911 0.510444 0.510444 0.859911 57.6494 16.8627)" fill="#636C53"/>
<rect x="142.349" y="18.0098" width="12.7157" height="25.4314" rx="5" transform="rotate(30.6934 142.349 18.0098)" fill="#636C53"/>
<circle cx="98" cy="80.4853" r="64" fill="#636C53"/>
<ellipse cx="97" cy="80.9853" rx="51" ry="50.5" fill="#D9D9D9"/>
<path d="M65 70.7853L94.0455 92.4853L136 61.4853" stroke="#636C53" stroke-width="5"/>
<path d="M64.012 13.6564C67.8436 19.5417 60.5811 19.6833 54.2093 23.8316C47.8374 27.9798 44.7692 34.5639 40.9377 28.6786C37.1061 22.7932 39.1654 14.6594 45.5372 10.5111C51.909 6.36285 60.1805 7.77103 64.012 13.6564Z" fill="#636C53"/>
<path d="M135.988 14.8035C132.156 20.6889 139.419 20.8305 145.791 24.9787C152.163 29.127 155.231 35.7111 159.062 29.8257C162.894 23.9404 160.835 15.8065 154.463 11.6583C148.091 7.51 139.82 8.91819 135.988 14.8035Z" fill="#636C53"/>
</svg>
