<svg width="200" height="165" viewBox="0 0 200 165" fill="none" xmlns="http://www.w3.org/2000/svg">
<path d="M42.3674 64.9952C47.8243 65.223 61.346 57.2145 67.4247 53.1818C69.0024 52.4701 73.4664 50.4775 78.7006 48.2002C85.2433 45.3536 94.431 44.9266 100.556 42.3646C106.681 39.8027 109.465 30.2665 107.238 21.1573C105.011 12.0481 94.0134 10.6248 82.5984 13.0444C71.1834 15.4641 57.6802 19.8763 38.1911 30.2665C18.7021 40.6567 24.2704 50.1928 26.3585 55.0321C28.4466 59.8714 35.5462 64.7106 42.3674 64.9952Z" fill="#636C53"/>
<path d="M74.3588 71.4364C70.0256 74.8082 64.8047 89.6786 62.736 96.6923C61.9835 98.258 59.8408 102.672 57.2904 107.803C54.1024 114.217 47.3281 120.51 44.2773 126.436C41.2265 132.362 45.2269 141.418 52.7975 146.894C60.368 152.37 69.7214 146.308 76.9224 137.053C84.1233 127.799 91.644 115.674 99.9106 95.1169C108.177 74.56 97.7686 70.9299 93.0525 68.6086C88.3364 66.2872 79.7754 67.2215 74.3588 71.4364Z" fill="#636C53"/>
<path d="M132.332 35.1478C130.192 38.8063 130.709 50.9619 131.235 56.5823C131.144 57.9203 130.873 61.6985 130.514 66.1073C130.066 71.6183 127.013 78.0701 126.524 83.1922C126.034 88.3143 131.496 93.6602 138.492 95.417C145.488 97.1738 150.456 90.1484 152.967 81.4516C155.478 72.7547 157.396 61.9082 157.433 44.8037C157.47 27.6991 148.968 28.0786 144.923 27.7656C140.877 27.4525 135.008 30.5747 132.332 35.1478Z" fill="#636C53"/>
</svg>
