<svg width="200" height="165" viewBox="0 0 200 165" fill="none" xmlns="http://www.w3.org/2000/svg">
<path d="M88.5076 120.861C73.6447 133.226 55.3096 128.804 48 125.047L108 79C107.695 87.8015 103.371 108.496 88.5076 120.861Z" fill="#D9D9D9"/>
<path d="M21.3967 58.0212C12.4769 78.2045 19.1667 119.545 23.6266 137.692C26.5634 151.768 64.0443 116.712 68.7829 111.135C73.5215 105.558 92.476 94.9355 107.807 93.6076C123.138 92.2798 164.67 55.8966 169.409 50.8507C174.148 45.8049 183.904 28.0117 181.674 25.8872C179.444 23.7626 167.736 25.356 157.702 31.7297C147.667 38.1033 128.991 43.4148 113.103 43.9459C97.2146 44.4771 59.5844 30.6674 51.5008 31.7297C43.4173 32.792 32.5464 32.792 21.3967 58.0212Z" fill="#636C53"/>
<circle cx="57" cy="65" r="3" fill="#D9D9D9"/>
<ellipse cx="51" cy="46.5" rx="3" ry="3.5" fill="#D9D9D9"/>
<ellipse cx="75.5" cy="59" rx="3.5" ry="3" fill="#D9D9D9"/>
<ellipse cx="69" cy="89.5" rx="3" ry="2.5" fill="#D9D9D9"/>
<circle cx="105" cy="71" r="3" fill="#D9D9D9"/>
<ellipse cx="38.5" cy="83" rx="3.5" ry="4" fill="#D9D9D9"/>
</svg>
