<svg width="200" height="165" viewBox="0 0 200 165" fill="none" xmlns="http://www.w3.org/2000/svg">
<path fill-rule="evenodd" clip-rule="evenodd" d="M101.528 28.8444V8H116.789V28.8444C116.789 38.776 108.818 46.8271 98.9846 46.8271H58.8044C57.3996 46.8271 56.2609 47.9773 56.2609 49.3961V55.2495C56.2609 56.6683 57.3996 57.8184 58.8043 57.8184H140.196C150.029 57.8184 158 65.8696 158 75.8012V82.5976C158 92.5292 150.029 100.58 140.196 100.58H58.8044C57.3996 100.58 56.2609 101.73 56.2609 103.149V112.775C56.2609 114.194 57.3996 115.344 58.8043 115.344H98.9846C108.818 115.344 116.789 123.395 116.789 133.326V157H101.528V133.326C101.528 131.908 100.389 130.758 98.9846 130.758H58.8043C48.9713 130.758 41 122.706 41 112.775V103.149C41 93.2177 48.9713 85.1665 58.8044 85.1665L96.9565 92.7759L140.196 85.1665C141.6 85.1665 142.739 84.0164 142.739 82.5976V75.8012C142.739 74.3824 141.6 73.2322 140.196 73.2322L98.9846 67.0862L58.8043 73.2322C48.9713 73.2322 41 65.1811 41 55.2495V49.3961C41 39.4645 48.9713 31.4134 58.8044 31.4134H98.9846C100.389 31.4134 101.528 30.2632 101.528 28.8444Z" fill="#636C53"/>
</svg>
