<svg width="200" height="165" viewBox="0 0 200 165" fill="none" xmlns="http://www.w3.org/2000/svg">
<ellipse cx="71.5" cy="139.5" rx="12.5" ry="13.5" fill="#636C53"/>
<circle cx="56" cy="56" r="13" fill="#636C53"/>
<ellipse cx="134" cy="25.5" rx="13" ry="13.5" fill="#636C53"/>
<ellipse cx="144" cy="98" rx="13" ry="12" fill="#636C53"/>
<path d="M53.3635 76.8671L58.5453 82.4437L58.5453 77.2618L63.4918 74.6712L73.3735 120.249L68.909 113.535L68.909 121.307L66.3181 118.716L63.2452 122.445L53.3635 76.8671Z" fill="#636C53"/>
<path d="M126.787 105.762L131.135 115.169L88.8019 134.736L87.0449 129.08L89.6358 126.489L84.4538 125.328L126.787 105.762Z" fill="#636C53"/>
<path d="M114.399 23.6555L118.886 33.3626L76.5526 52.929L79.272 48.7612L74.0902 46.1703L79.272 43.5794L72.0659 43.2219L114.399 23.6555Z" fill="#636C53"/>
<rect x="144.473" y="79.248" width="5.18182" height="37.7776" transform="rotate(171.549 144.473 79.248)" fill="#636C53"/>
</svg>
