<svg width="33" height="32" viewBox="0 0 33 32" fill="none" xmlns="http://www.w3.org/2000/svg">
<path fill-rule="evenodd" clip-rule="evenodd" d="M5.5 9C3.29086 9 1.5 10.7909 1.5 13V21C1.5 23.2091 3.29086 25 5.5 25H25.5C27.7091 25 29.5 23.2091 29.5 21V20.95C30.6411 20.7184 31.5 19.7095 31.5 18.5V15.5C31.5 14.2905 30.6411 13.2816 29.5 13.05V13C29.5 10.7909 27.7091 9 25.5 9H5.5ZM25.5 11C26.6046 11 27.5 11.8954 27.5 13V21C27.5 22.1046 26.6046 23 25.5 23H5.5C4.39543 23 3.5 22.1046 3.5 21V13C3.5 11.8954 4.39543 11 5.5 11H25.5ZM6.5 13C5.94772 13 5.5 13.4477 5.5 14V20C5.5 20.5523 5.94772 21 6.5 21H24.5C25.0523 21 25.5 20.5523 25.5 20V14C25.5 13.4477 25.0523 13 24.5 13H6.5Z" fill="white"/>
</svg>
