<svg width="32" height="32" viewBox="0 0 32 32" fill="none" xmlns="http://www.w3.org/2000/svg">
<path fill-rule="evenodd" clip-rule="evenodd" d="M16 9C16 5.13401 19.134 2 23 2C23.7055 2 24.3884 2.10469 25.033 2.30006C25.3693 2.40201 25.6275 2.67305 25.7129 3.01398C25.7984 3.3549 25.6986 3.71565 25.45 3.96418L21.0251 8.38911C21.1074 9.02322 21.3918 9.63442 21.8787 10.1213C22.3656 10.6082 22.9768 10.8926 23.6109 10.9749L28.0358 6.54996C28.2843 6.30144 28.6451 6.20163 28.986 6.28707C29.3269 6.37251 29.598 6.63065 29.6999 6.96701C29.8953 7.61161 30 8.29448 30 9C30 12.866 26.866 16 23 16C22.7993 16 22.6004 15.9915 22.4036 15.9749C21.0473 15.8602 19.9117 16.1088 19.3259 16.8202L9.79102 28.3982C8.95579 29.4124 7.71077 30 6.39691 30C3.96857 30 2 28.0314 2 25.6031C2 24.2892 2.58755 23.0442 3.60176 22.209L15.1798 12.6741C15.8912 12.0883 16.1398 10.9527 16.0251 9.59638C16.0085 9.39957 16 9.20066 16 9ZM5.48965 25.5001C5.48965 24.9478 5.93736 24.5001 6.48965 24.5001H6.49965C7.05193 24.5001 7.49965 24.9478 7.49965 25.5001V25.5101C7.49965 26.0623 7.05193 26.5101 6.49965 26.5101H6.48965C5.93736 26.5101 5.48965 26.0623 5.48965 25.5101V25.5001Z" fill="white"/>
</svg>
