<svg width="32" height="32" viewBox="0 0 32 32" fill="none" xmlns="http://www.w3.org/2000/svg">
<path fill-rule="evenodd" clip-rule="evenodd" d="M14.0307 5.16924C9.13663 5.16924 5.16918 9.13669 5.16918 14.0308C5.16918 18.9249 9.13663 22.8923 14.0307 22.8923C16.478 22.8923 18.6921 21.9015 20.2968 20.2968C21.9015 18.6921 22.8923 16.4781 22.8923 14.0308C22.8923 9.13669 18.9248 5.16924 14.0307 5.16924ZM3.19995 14.0308C3.19995 8.04911 8.04905 3.20001 14.0307 3.20001C20.0124 3.20001 24.8615 8.04911 24.8615 14.0308C24.8615 16.6667 23.9189 19.0839 22.3539 20.9615L28.5116 27.1192C28.8961 27.5037 28.8961 28.1271 28.5116 28.5116C28.127 28.8961 27.5036 28.8961 27.1191 28.5116L20.9615 22.354C19.0838 23.9189 16.6666 24.8615 14.0307 24.8615C8.04905 24.8615 3.19995 20.0124 3.19995 14.0308Z" fill="white" stroke="white" stroke-linecap="round" stroke-linejoin="round"/>
</svg>
