<svg width="32" height="32" viewBox="0 0 32 32" fill="none" xmlns="http://www.w3.org/2000/svg">
<g clip-path="url(#clip0_395_1872)">
<path fill-rule="evenodd" clip-rule="evenodd" d="M8.88478 2.05136C8.59946 1.97529 8.43469 1.68097 8.51675 1.394C8.59881 1.10702 8.89664 0.936044 9.18196 1.01212C10.8907 1.4677 13.2587 2.77906 14.9006 5.24C16.462 7.58034 17.3385 10.9182 16.4253 15.4531C20.9602 14.5399 24.2981 15.4164 26.6384 16.9778C29.0994 18.6197 30.4107 20.9877 30.8663 22.6965C30.9424 22.9818 30.7714 23.2796 30.4844 23.3617C30.1974 23.4437 29.9031 23.279 29.8271 22.9936C29.7038 22.5315 29.506 22.0069 29.2254 21.4589L20.9391 29.7452C21.5169 30.0486 22.071 30.2603 22.5564 30.3897C22.8417 30.4658 23.0065 30.7601 22.9244 31.0471C22.8423 31.334 22.5445 31.505 22.2592 31.4289C20.5504 30.9734 18.1824 29.662 16.5406 27.2011C14.9792 24.8607 14.1026 21.5229 15.0158 16.988C10.4809 17.9012 7.14307 17.0246 4.80272 15.4632C2.34179 13.8214 1.03043 11.4534 0.574842 9.74461C0.49877 9.45929 0.669743 9.16146 0.956722 9.0794C1.2437 8.99733 1.53801 9.16211 1.61408 9.44743C1.74348 9.93276 1.95518 10.4869 2.25857 11.0647L10.5839 2.73935C9.9766 2.41259 9.39299 2.18685 8.88478 2.05136ZM16.1958 16.5962C15.6386 19.0022 15.6079 21.0333 15.9137 22.7348L22.278 16.3705C20.5931 16.0513 18.5808 16.0636 16.1958 16.5962ZM16.3232 24.324C16.6164 25.1814 17.0003 25.9344 17.4388 26.5915C18.1026 27.5865 18.8977 28.3716 19.7073 28.971L28.3383 20.34C28.38 20.2984 28.4253 20.2627 28.4732 20.2332C27.8659 19.3931 27.0602 18.5641 26.0289 17.876C25.3873 17.448 24.6544 17.0719 23.8222 16.7815C23.788 16.8487 23.7426 16.9118 23.6863 16.9682L16.3888 24.2656C16.3679 24.2866 16.3459 24.3061 16.3232 24.324ZM11.7842 3.50757C11.7522 3.56402 11.712 3.61723 11.6638 3.66546L3.03275 12.2965C3.63222 13.1061 4.41727 13.9012 5.41227 14.565C6.06943 15.0035 6.82238 15.3874 7.6798 15.6806C7.69772 15.6578 7.71717 15.6359 7.73815 15.6149L15.0356 8.3175C15.0721 8.28095 15.1116 8.24903 15.1531 8.22178C14.8558 7.3208 14.4586 6.53332 14.0024 5.84954C13.3523 4.87518 12.5764 4.10215 11.7842 3.50757ZM15.5461 9.81296L9.26898 16.0901C10.9321 16.389 12.9101 16.3664 15.2453 15.8449C15.7909 13.489 15.8317 11.4925 15.5461 9.81296Z" fill="white"/>
<path fill-rule="evenodd" clip-rule="evenodd" d="M8.03608 1.2565C8.19174 0.71214 8.75732 0.381384 9.31083 0.528962C11.1223 1.01194 13.5992 2.38829 15.3166 4.96247C16.8733 7.29581 17.7566 10.5394 17.0478 14.8306C21.3391 14.1219 24.5826 15.0052 26.916 16.5619C29.4901 18.2793 30.8665 20.7561 31.3495 22.5676C31.4971 23.1211 31.1663 23.6867 30.6219 23.8424C30.0711 23.9999 29.4934 23.683 29.344 23.1224C29.2779 22.8746 29.1878 22.6046 29.0716 22.3198L21.7941 29.5973C22.1114 29.7314 22.4118 29.8337 22.6852 29.9066C23.2458 30.056 23.5627 30.6337 23.4052 31.1845C23.2495 31.7289 22.6839 32.0596 22.1304 31.912C20.3189 31.4291 17.8421 30.0527 16.1247 27.4785C14.568 25.1452 13.6847 21.9016 14.3934 17.6104C10.1022 18.3191 6.85862 17.4358 4.52529 15.8791C1.95111 14.1617 0.57475 11.6849 0.0917763 9.87339C-0.0558006 9.31987 0.274954 8.7543 0.819311 8.59863C1.37015 8.44112 1.94781 8.75803 2.09726 9.31859C2.17016 9.592 2.27237 9.89246 2.40647 10.2098L9.73488 2.88134C9.38529 2.72857 9.05457 2.61405 8.75603 2.53445C8.19548 2.38499 7.87856 1.80734 8.03608 1.2565ZM9.02212 1.50051C9.00956 1.50772 9.00122 1.51856 8.99754 1.53143C8.99554 1.53842 8.99552 1.54344 8.99595 1.54699C8.99642 1.55087 8.99763 1.55443 8.99933 1.55748C9.00103 1.56052 9.00302 1.56268 9.00486 1.56413C9.00641 1.56535 9.0089 1.56694 9.01365 1.5682C9.56177 1.71434 10.1815 1.955 10.8209 2.299L11.4129 2.61752L2.13175 11.8987L1.81593 11.2971C1.49638 10.6885 1.2706 10.0998 1.13102 9.57621C1.12975 9.57146 1.12817 9.56897 1.12695 9.56742C1.12549 9.56558 1.12333 9.56359 1.12029 9.56189C1.11725 9.56019 1.11369 9.55898 1.1098 9.55851C1.10625 9.55808 1.10123 9.5581 1.09425 9.5601C1.08137 9.56378 1.07054 9.57211 1.06332 9.58468C1.05615 9.59717 1.05588 9.60774 1.05802 9.61577C1.48622 11.2218 2.73259 13.481 5.08027 15.0473C7.29868 16.5273 10.4985 17.3876 14.9172 16.4978L15.6545 16.3493L15.506 17.0867C14.6162 21.5053 15.4765 24.7051 16.9565 26.9235C18.5228 29.2712 20.782 30.5176 22.388 30.9458C22.3961 30.9479 22.4066 30.9477 22.4191 30.9405C22.4317 30.9333 22.44 30.9224 22.4437 30.9096C22.4457 30.9026 22.4457 30.8976 22.4453 30.894C22.4448 30.8901 22.4436 30.8866 22.4419 30.8835C22.4402 30.8805 22.4382 30.8783 22.4364 30.8769C22.4348 30.8756 22.4324 30.8741 22.4276 30.8728C21.9041 30.7332 21.3153 30.5074 20.7067 30.1879L20.1051 29.8721L29.3575 20.6197L29.6705 21.231C29.9662 21.8085 30.1773 22.3661 30.3102 22.8648C30.3109 22.8671 30.3116 22.8689 30.3123 22.8703C30.313 22.8718 30.3137 22.8728 30.3143 22.8736C30.3158 22.8754 30.3179 22.8774 30.321 22.8791C30.3223 22.8799 30.3238 22.8805 30.3254 22.8811C30.3273 22.8818 30.3293 22.8822 30.3315 22.8825C30.335 22.8829 30.34 22.8829 30.347 22.8809C30.3599 22.8772 30.3707 22.8689 30.3779 22.8563C30.3851 22.8438 30.3854 22.8333 30.3832 22.8252C29.955 21.2192 28.7087 18.96 26.361 17.3937C24.1426 15.9137 20.9428 15.0534 16.5241 15.9432L15.7867 16.0917L15.9352 15.3543C16.825 10.9357 15.9647 7.73586 14.4847 5.51746C12.9184 3.16977 10.6592 1.92341 9.05321 1.49521C9.04518 1.49307 9.03461 1.49334 9.02212 1.50051ZM11.6299 2.76651L12.0844 3.10765C12.9174 3.73288 13.734 4.54622 14.4184 5.57202C14.8988 6.2921 15.3162 7.12008 15.628 8.06507L15.7481 8.42926L15.4275 8.63972C15.4144 8.64836 15.4015 8.65871 15.3892 8.67103L8.09176 15.9685C8.08468 15.9755 8.07826 15.9828 8.07246 15.9902L7.85318 16.2682L7.51811 16.1536C6.61858 15.8461 5.82686 15.4426 5.13483 14.9809C4.08731 14.282 3.26134 13.4453 2.63098 12.594L2.37452 12.2477L11.3103 3.31188C11.3265 3.29568 11.3394 3.27844 11.3494 3.26074L11.6299 2.76651ZM11.8443 4.19213L3.69831 12.3381C4.2275 12.9868 4.88663 13.6132 5.68982 14.1491C6.23556 14.5132 6.85197 14.8382 7.54529 15.1007L14.5722 8.0738C14.304 7.34311 13.9665 6.69656 13.5865 6.127C13.0696 5.35222 12.4684 4.71149 11.8443 4.19213ZM8.23903 16.4129L15.8768 8.77514L16.0391 9.7291C16.3372 11.4824 16.291 13.5461 15.7325 15.9576L15.6615 16.2642L15.3543 16.3328C12.963 16.8669 10.9174 16.8943 9.18059 16.5822L8.23903 16.4129ZM10.3361 15.7301C11.6368 15.8502 13.127 15.7751 14.8273 15.4234C15.1969 13.7072 15.2864 12.2025 15.1777 10.8885L10.3361 15.7301ZM15.7798 16.1768L16.0869 16.1082C18.5293 15.5628 20.6109 15.5458 22.3711 15.8792L23.3004 16.0553L15.5909 23.7648L15.4217 22.8232C15.1023 21.0463 15.1384 18.9462 15.7088 16.4833L15.7798 16.1768ZM16.2737 21.6678L21.2195 16.722C19.8918 16.5866 18.3642 16.6555 16.614 17.0176C16.2335 18.7841 16.1499 20.3266 16.2737 21.6678ZM23.575 16.1656L23.987 16.3094C24.8602 16.6141 25.6308 17.0094 26.3064 17.4601C27.3921 18.1844 28.2399 19.0569 28.8785 19.9402L29.1937 20.3762L28.7358 20.6587C28.7207 20.668 28.706 20.6795 28.6919 20.6935L19.7562 29.6293L19.4098 29.3728C18.5585 28.7425 17.7218 27.9165 17.0229 26.869C16.5612 26.177 16.1577 25.3852 15.8502 24.4857L15.7356 24.1506L16.0137 23.9314C16.021 23.9256 16.0283 23.9191 16.0353 23.912L23.3328 16.6146C23.3517 16.5957 23.3661 16.5754 23.3768 16.5544L23.575 16.1656ZM23.9865 17.3751L16.9031 24.4585C17.1656 25.1518 17.4907 25.7683 17.8548 26.314C18.3906 27.1172 19.017 27.7763 19.6657 28.3055L27.799 20.1723C27.2605 19.4989 26.5832 18.8469 25.7514 18.2919C25.2296 17.9438 24.6431 17.6313 23.9865 17.3751Z" fill="white"/>
</g>
<defs>
<clipPath id="clip0_395_1872">
<rect width="32" height="32" fill="white"/>
</clipPath>
</defs>
</svg>
