<svg width="24" height="24" viewBox="0 0 24 24" fill="none" xmlns="http://www.w3.org/2000/svg">
<path fill-rule="evenodd" clip-rule="evenodd" d="M2.5 5.57143C2.5 4.15127 3.65127 3 5.07143 3H6.24711C6.98457 3 7.6274 3.50191 7.80627 4.21735L8.75409 8.00865C8.91092 8.63597 8.67652 9.29618 8.15922 9.68416L7.0504 10.5158C6.93526 10.6021 6.91023 10.7286 6.94257 10.8169C7.91587 13.4738 10.0262 15.5841 12.6831 16.5574C12.7714 16.5898 12.8979 16.5647 12.9842 16.4496L13.8158 15.3408C14.2038 14.8235 14.864 14.5891 15.4913 14.7459L19.2826 15.6937C19.9981 15.8726 20.5 16.5154 20.5 17.2529V18.4286C20.5 19.8487 19.3487 21 17.9286 21H16C8.54416 21 2.5 14.9558 2.5 7.5V5.57143Z" fill="#7F896C"/>
</svg>
