<svg width="385" height="543" viewBox="0 0 385 543" fill="none" xmlns="http://www.w3.org/2000/svg">
<path fill-rule="evenodd" clip-rule="evenodd" d="M184.75 224.681C142.452 226.664 104.467 245.14 77.0808 273.822C104.467 302.504 142.452 320.98 184.75 322.963V224.681ZM199.925 322.963C242.224 320.98 280.209 302.505 307.596 273.822C280.209 245.139 242.224 226.664 199.925 224.681V322.963Z" fill="#433A31"/>
<path fill-rule="evenodd" clip-rule="evenodd" d="M184.75 6.64606C101.379 10.6047 35.0005 79.4523 35.0005 163.803C35.0005 248.155 101.379 317.002 184.75 320.961V322.963C100.274 319.003 33.0005 249.259 33.0005 163.803C33.0005 75.804 104.338 4.46631 192.338 4.46631C280.337 4.46631 351.675 75.804 351.675 163.803C351.675 249.259 284.401 319.003 199.925 322.963V320.961C283.296 317.002 349.675 248.155 349.675 163.803C349.675 79.4522 283.296 10.6045 199.925 6.64604V6.3633H184.75V6.64606Z" fill="#433A31"/>
<path fill-rule="evenodd" clip-rule="evenodd" d="M199.926 540.82C283.296 536.861 349.674 468.014 349.674 383.663C349.674 299.312 283.297 230.465 199.926 226.506L199.926 224.503C284.402 228.464 351.674 298.207 351.674 383.663C351.674 471.662 280.337 543 192.337 543C104.338 543 33.0001 471.662 33.0001 383.663C33.0001 298.207 100.274 228.463 184.751 224.503L184.751 226.505C101.379 230.463 35.0001 299.311 35.0001 383.663C35.0001 468.014 101.379 536.862 184.751 540.82L184.751 541.103L199.926 541.103L199.926 540.82Z" fill="#433A31"/>
<rect x="184.75" y="6.36328" width="15.175" height="218.14" fill="#433A31"/>
<rect x="184.75" y="323.141" width="15.175" height="218.14" fill="#433A31"/>
</svg>
