<svg width="36" height="36" viewBox="0 0 36 36" fill="none" xmlns="http://www.w3.org/2000/svg">
<path d="M6.1473 17.9174C8.75418 17.9174 10.3934 19.788 10.8871 20.7233C14.1457 20.7233 14.1457 18.4786 16.8118 18.4786C18.9447 18.4786 21.0578 19.601 21.8478 20.1621C22.4403 16.7951 21.8478 13.7086 21.2553 12.8668C20.6629 12.025 18.5892 10.0609 15.9231 11.4639C13.257 12.8668 8.51719 11.1833 10.5908 6.97443C12.6645 2.76558 16.8118 4.16853 18.5892 4.44912C20.3666 4.72971 38.1408 18.7592 33.1048 26.0546C28.0688 33.3499 18.293 32.2275 13.5532 31.3858C8.81343 30.544 10.2946 31.3858 6.73978 31.3858C3.89591 31.3858 2.39498 28.954 2 27.7381V20.7233C2.29624 19.788 3.54043 17.9174 6.1473 17.9174Z" fill="#7F896C"/>
</svg>
