<svg width="36" height="36" viewBox="0 0 36 36" fill="none" xmlns="http://www.w3.org/2000/svg">
<path d="M23.3358 5.56982C23.6951 5.21052 24.2776 5.21052 24.6368 5.56982L29.8407 10.7744C30.1999 11.1337 30.1999 11.7162 29.8407 12.0755L14.2291 27.6892L7.7243 21.1835L23.3358 5.56982Z" fill="#7F896C"/>
<rect width="1.14998" height="9.19983" rx="0.574989" transform="matrix(0.707058 0.707155 -0.707058 0.707155 31.303 3.2928)" fill="#7F896C"/>
<rect width="1.14998" height="9.19983" rx="0.574989" transform="matrix(0.707058 0.707155 -0.707058 0.707155 12.6042 21.9967)" fill="#7F896C"/>
<path d="M22.5611 10.815C22.6734 10.9273 22.6734 11.1094 22.5611 11.2216C22.4489 11.3339 22.2668 11.3339 22.1546 11.2216L19.9185 8.9853L20.3251 8.57869L22.5611 10.815Z" fill="#FAFDF2"/>
<path d="M20.5318 12.8481C20.6441 12.9604 20.6441 13.1424 20.5318 13.2547C20.4196 13.367 20.2375 13.367 20.1253 13.2547L17.8893 11.0184L18.2958 10.6118L20.5318 12.8481Z" fill="#FAFDF2"/>
<path d="M18.5006 14.8811C18.6128 14.9934 18.6128 15.1754 18.5006 15.2877C18.3883 15.4 18.2063 15.4 18.094 15.2877L15.858 13.0514L16.2646 12.6448L18.5006 14.8811Z" fill="#FAFDF2"/>
<path d="M17.6834 18.1339C17.7957 18.2462 17.7957 18.4282 17.6834 18.5405C17.5712 18.6528 17.3892 18.6528 17.2769 18.5405L13.8212 15.0844L14.2278 14.6777L17.6834 18.1339Z" fill="#FAFDF2"/>
<path d="M14.4298 18.9472C14.542 19.0595 14.542 19.2415 14.4298 19.3538C14.3175 19.4661 14.1355 19.4661 14.0232 19.3538L11.7872 17.1175L12.1938 16.7109L14.4298 18.9472Z" fill="#FAFDF2"/>
<path d="M12.401 20.9802C12.5132 21.0925 12.5132 21.2745 12.401 21.3868C12.2887 21.4991 12.1067 21.4991 11.9944 21.3868L9.75839 19.1505L10.1649 18.7439L12.401 20.9802Z" fill="#FAFDF2"/>
<rect width="1.14998" height="9.19983" rx="0.574989" transform="matrix(0.707058 -0.707155 0.707058 0.707155 2.84888 26.0628)" fill="#7F896C"/>
<rect width="1.14998" height="12.6498" rx="0.574989" transform="matrix(0.707058 -0.707155 0.707058 0.707155 5.69507 20.7769)" fill="#7F896C"/>
</svg>
