<svg width="200" height="165" viewBox="0 0 200 165" fill="none" xmlns="http://www.w3.org/2000/svg">
<path fill-rule="evenodd" clip-rule="evenodd" d="M102.219 24.5231V2H118.914V24.5231C118.914 35.2546 110.194 45.9542 99.4362 45.9542H55.4783C53.9415 45.9542 52.6957 47.197 52.6957 48.73V51.0548C52.6957 52.5878 53.9415 53.8306 55.4783 53.8306H144.522C155.279 53.8306 164 64.5302 164 75.2617V84.6054C164 95.3369 155.279 104.036 144.522 104.036H55.4783C53.9415 104.036 52.6957 105.279 52.6957 106.812V111.213C52.6957 112.746 53.9415 113.989 55.4783 113.989H99.4362C110.194 113.989 118.914 122.688 118.914 133.42V163H102.219V137.42C102.219 135.887 100.973 134.644 99.4362 134.644H55.4783C44.7207 134.644 36 125.944 36 115.213V104.812C36 94.0808 44.7207 83.3813 55.4783 83.3813H97.2174H144.522C146.059 83.3813 147.304 82.1385 147.304 80.6054V77.2617C147.304 75.7286 146.059 74.4858 144.522 74.4858H99.4362H55.4783C44.7207 74.4858 36 63.7862 36 53.0548V46.73C36 35.9986 44.7207 27.299 55.4783 27.299H99.4362C100.973 27.299 102.219 26.0562 102.219 24.5231Z" fill="#636C53"/>
</svg>
