<svg width="200" height="165" viewBox="0 0 200 165" fill="none" xmlns="http://www.w3.org/2000/svg">
<path d="M173 82.5C173 123.683 140.28 157 100 157C59.7204 157 27 123.683 27 82.5C27 41.3173 59.7204 8 100 8C140.28 8 173 41.3173 173 82.5Z" fill="#636C53" stroke="#636C53" stroke-width="4"/>
<path d="M105 43.5C105 40.4624 102.538 38 99.5 38C96.4624 38 94 40.4624 94 43.5C94 46.5376 96.4624 49 99.5 49C102.538 49 105 46.5376 105 43.5Z" fill="#FFFDF6"/>
<path d="M136 41.5C136 38.4624 133.538 36 130.5 36C127.462 36 125 38.4624 125 41.5C125 44.5376 127.462 47 130.5 47C133.538 47 136 44.5376 136 41.5Z" fill="#FFFDF6"/>
<path d="M144 60.5C144 57.4624 141.538 55 138.5 55C135.462 55 133 57.4624 133 60.5C133 63.5376 135.462 66 138.5 66C141.538 66 144 63.5376 144 60.5Z" fill="#FFFDF6"/>
<path d="M121 57.5C121 54.4624 118.538 52 115.5 52C112.462 52 110 54.4624 110 57.5C110 60.5376 112.462 63 115.5 63C118.538 63 121 60.5376 121 57.5Z" fill="#FFFDF6"/>
<path d="M156 100.916C156 127.472 130.704 149 99.5 149C68.2959 149 43 127.472 43 100.916C43 74.3602 68.2959 115.585 99.5 115.585C130.704 115.585 156 74.3602 156 100.916Z" fill="#FFFDF6"/>
</svg>
