<svg width="200" height="165" viewBox="0 0 200 165" fill="none" xmlns="http://www.w3.org/2000/svg">
<path d="M86.9115 90.4483L68.0493 57.5467L83.863 26.5468L120.254 26.5468L141.212 54.8841L121.587 89.8778" stroke="#636C53" stroke-width="6"/>
<path d="M68.3302 57.3719L37.0556 57.3719M37.0556 57.3719L13.4089 84.5235M37.0556 57.3719L13.4089 25.8532M85.1118 25.8532L77.6745 16.3596M142.322 54.5238L155.48 54.5238M72.5256 124.586L37.0556 124.586M37.0556 124.586L37.0556 152.498M37.0556 124.586L37.0556 95.5361M134.312 124.586L187.517 124.586M187.517 124.586L187.517 110.726M187.517 124.586L187.517 137.498" stroke="#636C53" stroke-width="6" stroke-linejoin="round"/>
<path d="M102.778 149.719L71.7537 124.489L86.883 89.5222L122.121 89.5222L133.803 124.489L102.778 149.719Z" stroke="#636C53" stroke-width="6"/>
<circle cx="12.4828" cy="24.6946" r="6.48276" fill="#636C53"/>
<circle cx="13.4088" cy="83.9655" r="6.48276" fill="#636C53"/>
<circle cx="76.3842" cy="14.5074" r="6.48276" fill="#636C53"/>
<circle cx="156.03" cy="54.3301" r="6.48276" fill="#636C53"/>
<circle cx="187.517" cy="109.897" r="6.48276" fill="#636C53"/>
<circle cx="187.517" cy="141.384" r="6.48276" fill="#636C53"/>
<circle cx="35.6355" cy="57.1084" r="6.48276" fill="#636C53"/>
<circle cx="68.0493" cy="57.1084" r="6.48276" fill="#636C53"/>
<circle cx="119.911" cy="24.6946" r="6.48276" fill="#636C53"/>
<circle cx="140.286" cy="54.3301" r="6.48276" fill="#636C53"/>
<circle cx="121.764" cy="89.5222" r="6.48276" fill="#636C53"/>
<circle cx="85.6454" cy="89.5222" r="6.48276" fill="#636C53"/>
<circle cx="37.4877" cy="96.9311" r="6.48276" fill="#636C53"/>
<circle cx="35.6355" cy="149.719" r="6.48276" fill="#636C53"/>
<circle cx="37.4877" cy="123.788" r="6.48276" fill="#636C53"/>
<circle cx="72.6798" cy="123.788" r="6.48276" fill="#636C53"/>
<circle cx="103.241" cy="147.867" r="6.48276" fill="#636C53"/>
<circle cx="133.803" cy="124.714" r="6.48276" fill="#636C53"/>
</svg>
