<svg width="200" height="165" viewBox="0 0 200 165" fill="none" xmlns="http://www.w3.org/2000/svg">
<ellipse cx="100.024" cy="82.5" rx="21.9112" ry="22.3876" fill="#636C53"/>
<ellipse cx="73.8254" cy="54.3965" rx="6.19231" ry="5.71598" fill="#636C53"/>
<circle cx="86.6864" cy="7.71598" r="5.71598" fill="#636C53"/>
<ellipse cx="126.698" cy="12.003" rx="5.71598" ry="6.19231" fill="#636C53"/>
<circle cx="160.994" cy="40.1065" r="5.71598" fill="#636C53"/>
<ellipse cx="173.379" cy="82.5" rx="5.71598" ry="6.19231" fill="#636C53"/>
<circle cx="157.183" cy="127.751" r="5.71598" fill="#636C53"/>
<circle cx="100.024" cy="157.284" r="5.71598" fill="#636C53"/>
<ellipse cx="49.5326" cy="136.802" rx="5.71598" ry="6.19231" fill="#636C53"/>
<ellipse cx="27.6213" cy="99.6479" rx="5.71598" ry="6.19231" fill="#636C53"/>
<ellipse cx="39.5296" cy="36.2959" rx="6.19231" ry="5.71598" fill="#636C53"/>
<circle cx="132.414" cy="103.935" r="5.71598" fill="#636C53"/>
<path d="M137.583 82.0237C137.583 103.327 120.733 120.536 100.024 120.536C79.3142 120.536 62.4645 103.327 62.4645 82.0237C62.4645 60.7199 79.3142 43.5118 100.024 43.5118C120.733 43.5118 137.583 60.7199 137.583 82.0237Z" stroke="#636C53" stroke-width="3"/>
<path d="M172.831 82.0237C172.831 122.769 140.012 155.784 99.5473 155.784C59.0826 155.784 26.2633 122.769 26.2633 82.0237C26.2633 41.2779 59.0826 8.26331 99.5473 8.26331C140.012 8.26331 172.831 41.2779 172.831 82.0237Z" stroke="#636C53" stroke-width="3"/>
</svg>
