<svg width="200" height="165" viewBox="0 0 200 165" fill="none" xmlns="http://www.w3.org/2000/svg">
<path d="M27.4519 18.7868C32.0607 20.4632 31.6698 32.0924 30.8982 37.6974C30.8982 45.5173 33.2129 53.2859 33.8815 57.3747C34.5502 61.4635 38.7166 73.6277 42.1629 73.4232C45.6091 73.2188 50.3413 63.9168 52.8103 54.6659C55.2792 45.415 54.0962 36.9308 53.9933 27.8332C53.8904 18.7357 59.6514 15.2602 67.9841 16.1291C76.3169 16.9979 78.3229 25.84 77.1399 33.4042C75.9568 40.9685 70.1445 50.526 65.258 59.6747C60.3715 68.8233 50.0327 77.4098 49.364 80.9875C48.6953 84.5652 59.4456 94.3272 62.8919 97.9049C66.3381 101.483 71.2761 111.449 73.6936 118.86C76.1111 126.271 76.5226 134.908 75.2881 140.735C74.0537 146.561 68.2927 150.139 59.8057 146.766C51.3186 143.393 54.662 132.2 54.6106 121.16C54.5591 110.12 48.0267 91.7206 44.6318 91.2095C41.237 90.6984 38.0994 96.576 33.8815 108.893C29.6637 121.211 33.1614 130.206 31.7212 138.282C30.281 146.357 27.2976 147.993 18.1933 147.328C9.08902 146.664 8.62609 135.368 9.14046 130.206C9.65483 125.044 14.2841 114.464 15.6729 111.449C17.0617 108.433 33.8815 83.083 33.8815 80.9875C33.8815 78.892 15.9815 57.7325 11.1465 42.2973C6.31144 26.8622 11.3522 22.2111 13.8726 20.0134C16.393 17.8157 21.691 16.6913 27.4519 18.7868Z" fill="#636C53"/>
<path d="M141.001 18.7868C145.609 20.4632 145.218 32.0924 144.447 37.6974C144.447 45.5173 146.762 53.2859 147.43 57.3747C148.099 61.4635 152.265 73.6277 155.712 73.4232C159.158 73.2188 163.89 63.9168 166.359 54.6659C168.828 45.415 167.645 36.9308 167.542 27.8332C167.439 18.7357 173.2 15.2602 181.533 16.1291C189.866 16.9979 191.872 25.84 190.689 33.4042C189.505 40.9685 183.693 50.526 178.807 59.6747C173.92 68.8233 163.581 77.4098 162.913 80.9875C162.244 84.5652 172.994 94.3272 176.441 97.9049C179.887 101.483 184.825 111.449 187.242 118.86C189.66 126.271 190.071 134.908 188.837 140.735C187.602 146.561 181.841 150.139 173.354 146.766C164.867 143.393 168.211 132.2 168.159 121.16C168.108 110.12 161.575 91.7206 158.181 91.2095C154.786 90.6984 151.648 96.576 147.43 108.893C143.212 121.211 146.71 130.206 145.27 138.282C143.83 146.357 140.846 147.993 131.742 147.328C122.638 146.664 122.175 135.368 122.689 130.206C123.204 125.044 127.833 114.464 129.222 111.449C130.61 108.433 147.43 83.083 147.43 80.9875C147.43 78.892 129.53 57.7325 124.695 42.2973C119.86 26.8622 124.901 22.2111 127.421 20.0134C129.942 17.8157 135.24 16.6913 141.001 18.7868Z" fill="#636C53"/>
<path d="M9.40266 128.341C13.295 129.683 23.6566 131.723 32.354 129.146" stroke="#FFFDF6" stroke-width="2"/>
<path d="M9 36.9672C12.8923 35.625 23.254 33.5849 31.9513 36.1619" stroke="#FFFDF6" stroke-width="2"/>
<path d="M122.549 25.6928C126.441 24.3506 136.803 22.3105 145.5 24.8875" stroke="#FFFDF6" stroke-width="2"/>
<path d="M122.549 137.602C126.441 138.944 136.803 140.984 145.5 138.407" stroke="#FFFDF6" stroke-width="2"/>
<path d="M53.292 129.549C57.1844 130.891 67.546 132.931 76.2434 130.354" stroke="#FFFDF6" stroke-width="2"/>
<path d="M53.6947 35.7592C57.587 34.417 67.9487 32.3769 76.646 34.9539" stroke="#FFFDF6" stroke-width="2"/>
<path d="M166.841 24.8584C170.938 23.2706 181.845 20.8572 191 23.9057" stroke="#FFFDF6" stroke-width="2"/>
<path d="M166.841 138.436C170.938 140.024 181.845 142.437 191 139.389" stroke="#FFFDF6" stroke-width="2"/>
</svg>
