<svg width="200" height="165" viewBox="0 0 200 165" fill="none" xmlns="http://www.w3.org/2000/svg">
<g clip-path="url(#clip0_728_3495)">
<path d="M44.0908 60.4711C26.2346 78.6621 14.1689 101.096 10.3681 110.039C7.22801 117.428 13.3189 132.329 18.9667 136.029C38.919 149.102 55.2939 131.141 80.9943 106.139C106.695 81.1369 134.381 53.4481 115.851 32.8261C97.3207 12.2041 66.4111 37.7324 44.0908 60.4711Z" fill="#636C53"/>
<path d="M140.672 74.9439C140.499 92.2643 145.175 108.957 147.535 115.139C149.485 120.246 159.521 124.72 164.045 123.893C180.027 120.97 179.581 104.457 180.389 80.1085C181.197 55.76 181.711 29.1588 162.859 27.7013C144.008 26.2439 140.89 53.2935 140.672 74.9439Z" fill="#636C53"/>
<path d="M30.7966 100.156C32.2228 98.2533 32.6081 94.2994 32.6225 92.5602C33.0245 88.7281 37.3687 84.2421 40.5039 82.5138C43.6391 80.7855 46.2633 82.4782 48.3047 81.5183C50.3461 80.5583 47.3815 75.0352 49.3993 72.9855C51.4172 70.9358 53.4645 72.4129 55.6263 70.9254C57.788 69.4378 57.4168 66.0241 59.4338 63.0804C61.4508 60.1367 66.5329 57.9268 67.6169 55.9829C68.7009 54.0389 70.3327 52.6047 74.3203 52.1797C78.308 51.7547 77.7746 50.1426 78.8085 48.1745C79.8424 46.2064 81.7449 46.2274 83.2509 46.7048C84.7568 47.1821 88.4999 49.0738 90.0766 46.0725C91.6533 43.0713 93.669 44.071 98.164 43.3969C102.659 42.7227 106.284 52.6614 106.12 55.6019C105.955 58.5425 102.271 60.7775 102.003 63.0209C101.734 65.2642 99.6759 70.3759 95.5185 70.288C91.3612 70.2 94.749 74.201 93.9381 76.4611C93.1273 78.7213 89.1931 80.8359 86.6791 82.2773C84.1651 83.7188 81.612 89.1163 77.1407 92.7907C72.6695 96.4651 68.1902 100.752 65.8631 104.286C63.536 107.82 59.5323 109.47 56.7923 112.775C54.0523 116.08 52.8744 115.575 43.9228 120.732C34.9712 125.888 28.4429 120.162 25.6429 113.609C22.8429 107.056 29.0139 102.534 30.7966 100.156Z" stroke="#FFFDF6" stroke-width="3"/>
<path d="M152.847 100.802C152.646 99.2013 150.963 97.0787 150.147 96.2175C148.531 94.1469 148.538 89.9152 149.257 87.6027C149.976 85.2903 152.063 84.8973 152.61 83.4729C153.156 82.0485 149.089 80.7183 149.108 78.7694C149.128 76.8205 150.83 76.5908 151.186 74.851C151.542 73.1112 149.744 71.6071 149.34 69.2193C148.936 66.8316 150.382 63.3739 149.993 61.9128C149.605 60.4517 149.726 58.9855 151.48 56.9156C153.233 54.8457 152.209 54.3025 151.784 52.8529C151.36 51.4034 152.303 50.5257 153.267 50.0574C154.231 49.5892 156.961 48.7717 156.314 46.5612C155.666 44.3506 157.128 43.9011 159.012 41.472C160.897 39.0429 167.378 42.2343 168.689 43.756C169.999 45.2776 169.251 48.095 170.181 49.3227C171.111 50.5505 172.521 54.0226 170.441 55.9196C168.362 57.8167 171.916 58.2015 172.588 59.6904C173.26 61.1794 172.332 64.0545 171.782 65.9361C171.232 67.8177 172.534 71.6613 172.081 75.5535C171.628 79.4457 171.461 83.6425 171.992 86.4651C172.524 89.2877 171.342 91.9669 171.563 94.8696C171.783 97.7722 170.967 98.074 169.019 104.786C167.071 111.497 161.161 111.73 156.687 109.817C152.213 107.904 153.098 102.802 152.847 100.802Z" stroke="#FFFDF6" stroke-width="3"/>
</g>
<defs>
<clipPath id="clip0_728_3495">
<rect width="200" height="165" fill="white"/>
</clipPath>
</defs>
</svg>
